<svg viewBox="0 0 100 100" fill="none" xmlns="http://www.w3.org/2000/svg">
  <defs>
    <linearGradient id="g3" x1="0" y1="0" x2="1" y2="0">
      <stop offset="0%" stop-color="#ec4899"/>
      <stop offset="50%" stop-color="#8b5cf6"/>
      <stop offset="100%" stop-color="#06b6d4"/>
    </linearGradient>
  </defs>
  <rect width="100" height="100" rx="20" fill="#111827"/>
  <!-- Base frame -->
  <rect x="15" y="32" width="70" height="36" rx="6" fill="#1e293b" stroke="url(#g3)" stroke-width="2.5" />
  <!-- Keys rows -->
  <g fill="#334155">
    <!-- Row 1 -->
    <rect x="20" y="38" width="8" height="6" rx="1.5" />
    <rect x="30" y="38" width="8" height="6" rx="1.5" />
    <rect x="40" y="38" width="8" height="6" rx="1.5" fill="#f43f5e" />
    <rect x="50" y="38" width="8" height="6" rx="1.5" />
    <rect x="60" y="38" width="8" height="6" rx="1.5" />
    <rect x="70" y="38" width="10" height="6" rx="1.5" />
    <!-- Row 2 -->
    <rect x="20" y="47" width="10" height="6" rx="1.5" />
    <rect x="32" y="47" width="8" height="6" rx="1.5" />
    <rect x="42" y="47" width="8" height="6" rx="1.5" />
    <rect x="52" y="47" width="8" height="6" rx="1.5" />
    <rect x="62" y="47" width="8" height="6" rx="1.5" />
    <rect x="72" y="47" width="8" height="6" rx="1.5" fill="#06b6d4" />
    <!-- Row 3: Spacebar -->
    <rect x="20" y="56" width="12" height="6" rx="1.5" />
    <rect x="34" y="56" width="32" height="6" rx="1.5" fill="#8b5cf6" />
    <rect x="68" y="56" width="12" height="6" rx="1.5" />
  </g>
</svg>
